<?xml version="1.0" ?><svg viewBox="0 0 512 512" xmlns="http://www.w3.org/2000/svg" xmlns:xlink="http://www.w3.org/1999/xlink"><style>:root>svg{display:none}:root>svg:target{display:block}</style><svg data-name="Слой 1" id="internet-media-multimedia-2-svgrepo-com" viewBox="0 0 512 512" xmlns="http://www.w3.org/2000/svg"><defs><style>.acls-1{fill:#cdccd2}.acls-2{fill:#fff}.acls-3{fill:#424342}</style></defs><circle class="acls-1" cx="256" cy="256.5" r="207.77"/><circle class="acls-2" cx="256" cy="256.04" r="194.41"/><path class="acls-3" d="M360.58 219.49l-104.21 29.87a2.06 2.06 0 01-1.14 0L151 219.49a2.06 2.06 0 010-4l104.21-30.8a2.06 2.06 0 011.17 0l104.21 30.8a2.06 2.06 0 01-.01 4zM360.43 311.26l-104.06 27a2.06 2.06 0 01-1 0l-104.16-27a2.06 2.06 0 01-.11-4l22.76-7.25a2.06 2.06 0 011.11 0l80.43 19.39a2.06 2.06 0 001 0l80.31-19.4a2.06 2.06 0 011.11 0l22.72 7.25a2.06 2.06 0 01-.11 4.01zM360.43 266.8l-104.06 27a2.06 2.06 0 01-1 0l-104.16-27a2.06 2.06 0 01-.11-4l22.76-7.25a2.06 2.06 0 011.11 0l80.43 19.39a2.06 2.06 0 001 0l80.38-19.39a2.06 2.06 0 011.11 0l22.72 7.25a2.06 2.06 0 01-.18 4z"/></svg><svg data-name="Слой 1" id="internet-media-network-11-svgrepo-com" viewBox="0 0 512 512" xmlns="http://www.w3.org/2000/svg"><defs><style>.bcls-1{fill:#cdccd2}.bcls-2{fill:#fff}.bcls-3{fill:#4075bc}</style></defs><circle class="bcls-1" cx="257" cy="252" r="207.77"/><circle class="bcls-2" cx="257" cy="252.95" r="194.41"/><path class="bcls-3" d="M235.06 281.94s53 3.89 75.19-17.15c0 0 24.56-17.71 29.06-49.65 0 0 16.14 19.86-1.86 60.58a62.61 62.61 0 01-14 15.46c-17.7 13.82-37.76 13.82-44.78 13.53h-.47c-6.42.19-11.31 8.33-14.08 14.16-2.19 15-4.38 30.13-6.57 45.13h-35.66z"/><path class="bcls-3" d="M214.39 343h-46.92L197 155h73.67c28.07-1 51.85 13.78 59.12 35 5 14.46.84 27.79-1.41 33.67-2.15 5.61-6.13 19.63-19.71 30.91a61 61 0 01-32.84 13.58 82.66 82.66 0 01-16.42.46c-8.55-.63-11.26-.95-11.26-.95-8.76-.4-11.34.27-13.14.94a18.73 18.73 0 00-6.57 4c-4.08 3.91-5.25 9.34-5.63 12C220 304 217.2 323 214.39 343z"/></svg><svg data-name="Слой 1" id="internet-media-network-13-svgrepo-com" viewBox="0 0 512 512" xmlns="http://www.w3.org/2000/svg"><defs><style>.ccls-1{fill:#cdccd2}.ccls-2{fill:#fff}.ccls-3{fill:#424342}</style></defs><circle class="ccls-1" cx="253.57" cy="254" r="207.77"/><circle class="ccls-2" cx="254" cy="253.76" r="194.41"/><circle class="ccls-3" cx="179.98" cy="240.44" r="27.02"/><circle class="ccls-3" cx="246.98" cy="232.05" r="31.22"/><circle class="ccls-3" cx="320.85" cy="222.73" r="34.2"/><path class="ccls-3" d="M150.08 316h58.53s8.08-39.59-28.63-42.27-29.9 42.27-29.9 42.27zM214.88 316h64.8c.32-1 5.36-21.44-8.3-35.86-9.34-9.86-21.46-11.08-24.45-11.24-2.5.19-15.88 1.78-25.37 13.28-11.83 14.36-7.13 32.82-6.68 33.82z"/><path class="ccls-3" d="M284.81 315.21l72.09.72c3.94-17.43-1.09-34.81-13.3-44.71a39.86 39.86 0 00-22.8-8.45c-3.31.22-16.92 1.5-27.26 12.73-15.03 16.31-9.11 38.39-8.73 39.71z"/></svg><svg data-name="Слой 1" id="internet-media-network-14-svgrepo-com" viewBox="0 0 512 512" xmlns="http://www.w3.org/2000/svg"><defs><style>.dcls-1{fill:#cdccd2}.dcls-2{fill:#fff}.dcls-3{fill:#00b87d}</style></defs><circle class="dcls-1" cx="256" cy="253.36" r="207.77"/><circle class="dcls-2" cx="256" cy="252.95" r="194.41"/><path class="dcls-3" d="M180.5 200h29.83c1.4 9 3.12 19.16 5.24 29.5 2.24 10.94 4.72 21.16 7.33 30.91a220.46 220.46 0 0032.1 56.18s26.89-29.78 29.58-42c0 0-27.1-13.65-30.92-48.48 0 0-4.52-46.54 30.92-52.84 0 0 38.06-5.7 44.5 24.92 0 0 6.83 18.31-3.89 45.3 0 0-17.74 3.68-24.91-8.07 0 0 9.71-35.83-7.94-37.24 0 0-19.82.39-8.89 40.14 0 0 7.56 24.43 45.56 19.37v19.79s-6.51 3.59-19.1 3c0 0-15.29 28.29-25.81 39.65a128.39 128.39 0 01-16.62 17c-7 5.85-9.94 7.09-13.06 7.31-6.53.47-11.65-3.6-13.7-5.43A138.59 138.59 0 01210 299.47a192.54 192.54 0 01-10.81-22.81 190.1 190.1 0 01-9.05-29.34S182.55 212 180.5 200z"/></svg><svg data-name="Слой 1" id="internet-media-network-15-svgrepo-com" viewBox="0 0 512 512" xmlns="http://www.w3.org/2000/svg"><defs><style>.ecls-1{fill:#cdccd2}.ecls-2{fill:#fff}.ecls-3{fill:#00d0f6}</style></defs><circle class="ecls-1" cx="256" cy="252.35" r="207.77"/><circle class="ecls-2" cx="256" cy="252.35" r="194.41"/><path class="ecls-3" d="M368.17 185.44c.64 3.46-22.09 22.65-22.09 22.65-42.79 222.42-193.57 110.57-193.57 110.57 36.35 5.19 65.5-18.14 65.5-18.14-37.92-4.39-41.35-30.39-41.35-30.39 7.62 3.32 20-.75 20-.75-40.29-15.62-35.5-42.93-35.5-42.93 7.06 4.05 20 4.94 20 4.94-32.72-22.9-13.69-58.46-13.69-58.46 30.12 37.95 75.33 44.44 87.87 45.53a43.11 43.11 0 01-1.17-10.11c0-24.81 20.32-44.94 45.39-44.94a45.52 45.52 0 0133.75 14.87l.76.46 28.09-10.61c-1.24 10.84-18.34 23.4-19.42 24.2 1.32-.54 24.81-10.26 25.43-6.89z"/></svg><svg data-name="Слой 1" id="internet-media-network-20-svgrepo-com" viewBox="0 0 512 512" xmlns="http://www.w3.org/2000/svg"><defs><style>.fcls-1{fill:#cdccd2}.fcls-2{fill:#fff}.fcls-3{fill:#f71b0e}</style></defs><circle class="fcls-1" cx="257.94" cy="258.23" r="207.77"/><circle class="fcls-2" cx="258" cy="258.23" r="194.41"/><path class="fcls-3" d="M236.56 284.84l8.22 22.33s-21.63 19.58-57.73 12.23-39.62-41.5-39.62-41.5-6.43-37.9 10.46-61.13 54.18-20.51 54.18-20.51 30.51-1.2 47.4 30.19a51.86 51.86 0 014.3 11C267.15 250 277.84 285.7 291.1 293c0 0 29 15.68 48.43.6a10.51 10.51 0 001.79-14.85c-3.67-4.53-11.8-9.2-29.19-11.37 0 0-34.31-3.54-32.94-34.38 0 0-2.54-28.81 32-35.56 0 0 30-4.78 44.57 6.33a30.52 30.52 0 0113.24 25.1l-25.67 3.08s-.46-18.41-26.1-15.09c0 0-18.16 4-8.57 23.15a32.6 32.6 0 0018.56 6.67s23.52 1.42 35.17 15.55a42.19 42.19 0 015.32 36.21c-6.39 21-33.78 21.18-33.78 21.18s-44 2.87-57.15-7c0 0-18.14-9.76-27.19-33.42a72.34 72.34 0 01-3.17-11c-2.26-10.74-14.06-58.23-44.64-51.32-34.45 7.78-28.19 52.53-28.19 52.53s2.65 30.66 29.57 30.28c.03.04 19.76.58 33.4-14.85z"/></svg><svg data-name="Слой 1" id="internet-media-network-4-svgrepo-com" viewBox="0 0 512 512" xmlns="http://www.w3.org/2000/svg"><defs><style>.gcls-1{fill:#cdccd2}.gcls-2{fill:#fff}.gcls-3{fill:#424342}</style></defs><circle class="gcls-1" cx="256" cy="257" r="207.77"/><circle class="gcls-2" cx="256" cy="256.04" r="194.41"/><path class="gcls-3" d="M347.62 211.36c-42.95-40.62-95.19 24.28-95.19 24.28a87.31 87.31 0 00-39-32 58.54 58.54 0 00-46.83.56c-22.25 10.24-28.3 30-29 46.52-.85 19.4 7.2 38.3 22.34 50.46 42.94 34.48 92.53-22.82 92.53-22.82 33.77 40.67 64.42 35.51 64.42 35.51 37.68-5.58 48.46-29 50.59-48.72a64.73 64.73 0 00-19.86-53.79zM187.1 283.22c-5.09-2.62-12.88-9.73-14.71-20a28.35 28.35 0 01.77-12.47c2.81-9.6 10.22-16.11 15.21-18.45 12.8-6 35.2 3.35 49.23 26.79-15.22 22.28-37.66 30.7-50.5 24.13zM332 263.11c-1.83 10.25-9.62 17.35-14.71 20-12.84 6.59-35.29-1.85-50.5-24.11 14-23.44 36.43-32.81 49.23-26.79 5 2.35 12.41 8.85 15.21 18.45a28.35 28.35 0 01.77 12.45z"/></svg><svg data-name="Слой 1" id="internet-media-network-5-svgrepo-com" viewBox="0 0 512 512" xmlns="http://www.w3.org/2000/svg"><defs><style>.hcls-1{fill:#cdccd2}.hcls-2{fill:#fff}.hcls-3{fill:#424342}.hcls-4{fill:none}</style></defs><circle class="hcls-1" cx="259" cy="251" r="207.77"/><circle class="hcls-2" cx="258.44" cy="251.11" r="194.41"/><path class="hcls-3" d="M278.41 271.54s-13.56-9.61-17.45-15.81.48-11.82 12.33-23.32 17.69-22.1 14.3-38.73S268.34 167 268.34 167h18.31l16.71-10.24c-12.86-.7-26.73-1.37-41.5-1-12.69.34-24.69.93-35.92 2-4.85 1.18-26.07 6.81-37.14 26.8a50.81 50.81 0 00-5.87 23.49c-.61 34.05 40.61 38.85 40.61 38.85s10.22.65 13.94-.79c0 0-8.92 12.83 5.33 28.29 0 0-34.81.22-52.53 12.06A37.59 37.59 0 00169 318.57c-1.37 23.76 30 33.8 30 33.8s35.7 11.71 72.16-6.1S296 294.42 296 294.42s-2.7-10.42-17.59-22.88zm-69.1-61.42c-6.46-20 0-39.86 14.46-44.42s31.38 7.93 37.84 27.91 0 39.86-14.45 44.42-31.39-7.94-37.85-27.91zm44.15 133.71c-26.78 6.33-73-6.93-60.23-37.2s57.11-24.75 57.11-24.75l15.79 11.35c15.79 11.34 13.78 23.48 13.78 23.48s.33 20.8-26.45 27.12z"/><path class="hcls-3" d="M317 230h10.17l.08 21h20.67l.17 11h-20.92l.08 19h-9.84l-.57-20.45c-7-.05-14.06 0-21.09 0 .08-3.2.17-6.5.25-9.5h21V230z"/><path class="hcls-4" d="M-1064 0h3172v512h-3172z"/></svg><svg data-name="Слой 1" id="internet-media-network-6-svgrepo-com" viewBox="0 0 512 512" xmlns="http://www.w3.org/2000/svg"><defs><style>.icls-1{fill:#cdccd2}.icls-2{fill:#fff}.icls-3{fill:#424342}</style></defs><circle class="icls-1" cx="256" cy="254" r="207.77"/><circle class="icls-2" cx="256" cy="253.76" r="194.41"/><path class="icls-3" d="M363.54 221.77a4.29 4.29 0 00-2-3.6L256 149.14a4.33 4.33 0 00-4.79 0l-101.04 68.55a4.35 4.35 0 00-1.89 3.58l-.2 69a4.33 4.33 0 001.93 3.62l103.36 69a4.36 4.36 0 004.84 0L362 292.75a4.4 4.4 0 001.91-3.62zM264 174.52L337.37 223l-33 21.82L264 217.89v-43.37zm-17-.22v43.48l-40.66 27L173.85 223zm-83 65.28L187.51 256 164 272.1v-32.53zm81 97.59L172.94 289l31.92-22.1L245 294.25v42.92zM255.8 278l-33-22 33-22.05 33 22.05zm8.2 59.7v-43.45l41-27L337.3 289zm81-65.6L321.49 256 345 239.57v32.53z"/></svg><svg data-name="Слой 1" id="internet-media-network-8-svgrepo-com" viewBox="0 0 512 512" xmlns="http://www.w3.org/2000/svg"><defs><style>.jcls-1{fill:#cdccd2}.jcls-2{fill:#fff}.jcls-3{fill:#00b9ec}.jcls-4{fill:none}</style></defs><circle class="jcls-1" cx="256" cy="254" r="207.77"/><circle class="jcls-2" cx="256" cy="253.36" r="194.41"/><path class="jcls-3" d="M152 212l35-30s24.35-21.59 40.27-8.91c0 0 11 5.28 15.42 42.4 0 0 4.15 32.15 8.55 40.85 0 0 5.68 19.69 12 18.59s15.65-14.46 15.65-14.46 14.67-20.59 15-26.67c0 0 10.08-24.49-11.64-24.55 0 0-12.75.86-14.91 3.21s7.1-17.06 7.1-17.06 13.56-33.5 55.68-28.29c23.71 2.93 24.74 25.25 21.11 44.21a112.49 112.49 0 01-15.74 39.13c-8.89 14-23.92 36.63-33.53 45.78-14.34 13.67-32.13 37.86-59.22 39.43s-38.17-61.34-38.17-61.34-12.77-62.27-27.31-59.69c0 0-11 4.87-15.81 9.21z"/><path class="jcls-4" d="M0 0h3172v512H0z"/></svg><svg data-name="Слой 1" id="internet-media-network-9-svgrepo-com" viewBox="0 0 512 512" xmlns="http://www.w3.org/2000/svg"><defs><style>.kcls-1{fill:#cdccd2}.kcls-2{fill:#fff}.kcls-3{fill:#ffc100}</style></defs><circle class="kcls-1" cx="256" cy="256" r="207.77"/><circle class="kcls-2" cx="256" cy="258.23" r="194.41"/><path class="kcls-3" d="M336.68 236.42l-16.14-1.49-.59-22.58a48.84 48.84 0 00-49-47.35h-63.1c-27.22 0-50.85 21.48-50.85 48.66v95.15C157 336 180.63 359 207.81 359H303c27.18 0 48-23 48-50.19v-56.05c0-8.5-5.87-15.57-14.32-16.34zm-116.28-21.2l33.6.08s10.94 1.64 11.07 11.48-10.25 11.35-10.25 11.35h-34.45s-10.17-.8-10.76-11.5 10.79-11.41 10.79-11.41zm69.6 92.27l-69-.31s-10.84-.14-11.65-11.5S220.12 285 220.12 285h70.54s10.42-.09 10.94 10.84-11.6 11.65-11.6 11.65z"/></svg><svg data-name="Слой 1" id="internet-media-network-svgrepo-com" viewBox="0 0 512 512" xmlns="http://www.w3.org/2000/svg"><defs><style>.lcls-1{fill:#cdccd2}.lcls-2{fill:#fff}.lcls-3{fill:#00c5ef}</style></defs><circle class="lcls-1" cx="254" cy="253" r="207.77"/><circle class="lcls-2" cx="254.13" cy="254.08" r="194.41"/><path class="lcls-3" d="M353 267.68a96.67 96.67 0 00-107.68-106.56 61 61 0 00-83.43 78.64 96.85 96.85 0 00-1.55 17.24c0 53.37 43.26 96.9 96.64 96.9 5.2 0 10.34-.95 15.33-.95a64.15 64.15 0 0027.78 6.41A61.28 61.28 0 00353 267.68zm-59.75 44.12c-21.55 11.08-49.15 3.38-49.15 3.38-1-.22-23.68-5.41-26.8-20.79-.26-1.32-2.15-11.37 3.92-15.13 3.63-2.25 8.94-1.53 13.56 1.52 0 0 12.33 15.62 17.18 15.69s29.13 8.53 33.83-13.07c0 0 3.65-10.29-24.43-15.19s-37.77-14.85-37.77-14.85a30.29 30.29 0 01-6.07-30.63 33.42 33.42 0 0123.88-21.84s12-4.35 22.64-3.09c0 0 32.52.78 42.22 20.52s-16.81 21.23-19.52 12.28c0 0-11.21-16.63-31.68-12.35S243 235.84 243 235.84s8.11 10.37 33.09 11.47 35.47 21 35.83 28.54 2.87 24.87-18.67 35.95z"/></svg></svg>